# xmcd
#
# Track frame offsets:
#	150
#	21307
#	50195
#	67440
#	89365
#	117780
#	143205
#	164725
#	192672
#	216055
#
# Disc length: 3159 seconds
#
# Revision: 1
# Processed by: cddbd v1.5.2PL0 Copyright (c) Steve Scherf et al.
# Submitted via: EasyCDDAExtractor 16.0.9.1
#
DISCID=a40c550a
DTITLE=Như Quỳnh and Thế Sơn - TNCD142: Bọt Biển
DYEAR=1997
DGENRE=Country
TTITLE0=Như Quỳnh and Thế Sơn - Bọt Biển (Lam Phương)
TTITLE1=Như Quỳnh - Không Bao Giờ Quên Anh (Hoàng Trang)
TTITLE2=Thế Sơn - Sầu Lắng (Tô Thanh Sơn)
TTITLE3=Như Quỳnh - Cay Đắng Tình Đời (Phượng Linh)
TTITLE4=Như Quỳnh and Thế Sơn - Tôi Vẫn Nhớ (Ngân Giang)
TTITLE5=Thế Sơn - Thành Phố Buồn (Lam Phương)
TTITLE6=Như Quỳnh - Chút Kỷ Niệm Buồn (Tô Thanh Sơn)
TTITLE7=Như Quỳnh and Thế Sơn - Đôi Ngã Đôi Ta (Trần Thiện Thanh)
TTITLE8=Thế Sơn - Ngày Vui Qua Mau (Nhật Ngân)
TTITLE9=Như Quỳnh - Ru Nắng (Trầm Tử Thiêng)
EXTD=
EXTT0=
EXTT1=
EXTT2=
EXTT3=
EXTT4=
EXTT5=
EXTT6=
EXTT7=
EXTT8=
EXTT9=
PLAYORDER=
